<mxfile host="app.diagrams.net" modified="2021-02-08T12:26:00.386Z" agent="5.0 (X11)" etag="84UXdsOMA7Oaf8IanHUk" version="14.2.9" type="github">
  <diagram id="ndb8e-Y5hg-XFs6lgxi2" name="Page-1">
    <mxGraphModel dx="602" dy="804" grid="1" gridSize="10" guides="1" tooltips="1" connect="1" arrows="1" fold="1" page="1" pageScale="1" pageWidth="827" pageHeight="1169" math="0" shadow="0">
      <root>
        <mxCell id="0" />
        <mxCell id="1" parent="0" />
        <mxCell id="-r99oHCk0KJAR1hb0Yyz-1" value="Encuentros virtuales" style="html=1;verticalAlign=top;fillColor=none;" parent="1" vertex="1">
          <mxGeometry x="280" y="120" width="340" height="510" as="geometry" />
        </mxCell>
        <mxCell id="-r99oHCk0KJAR1hb0Yyz-28" style="edgeStyle=orthogonalEdgeStyle;rounded=0;orthogonalLoop=1;jettySize=auto;html=1;exitX=0.5;exitY=0.5;exitDx=0;exitDy=0;exitPerimeter=0;" parent="1" source="-r99oHCk0KJAR1hb0Yyz-2" target="-r99oHCk0KJAR1hb0Yyz-8" edge="1">
          <mxGeometry relative="1" as="geometry" />
        </mxCell>
        <mxCell id="-r99oHCk0KJAR1hb0Yyz-34" style="edgeStyle=orthogonalEdgeStyle;rounded=0;orthogonalLoop=1;jettySize=auto;html=1;exitX=0.5;exitY=0.5;exitDx=0;exitDy=0;exitPerimeter=0;entryX=0;entryY=0.5;entryDx=0;entryDy=0;" parent="1" source="-r99oHCk0KJAR1hb0Yyz-2" target="-r99oHCk0KJAR1hb0Yyz-33" edge="1">
          <mxGeometry relative="1" as="geometry" />
        </mxCell>
        <mxCell id="-r99oHCk0KJAR1hb0Yyz-2" value="Usuario" style="shape=umlActor;verticalLabelPosition=bottom;verticalAlign=top;html=1;fillColor=none;gradientColor=none;" parent="1" vertex="1">
          <mxGeometry x="190" y="200" width="30" height="60" as="geometry" />
        </mxCell>
        <mxCell id="-r99oHCk0KJAR1hb0Yyz-26" style="edgeStyle=orthogonalEdgeStyle;rounded=0;orthogonalLoop=1;jettySize=auto;html=1;exitX=0.5;exitY=0.5;exitDx=0;exitDy=0;exitPerimeter=0;" parent="1" source="-r99oHCk0KJAR1hb0Yyz-5" target="7F51FcL1bgS4VTPVWYM4-5" edge="1">
          <mxGeometry relative="1" as="geometry">
            <Array as="points">
              <mxPoint x="665" y="505" />
            </Array>
          </mxGeometry>
        </mxCell>
        <mxCell id="7F51FcL1bgS4VTPVWYM4-2" style="edgeStyle=orthogonalEdgeStyle;rounded=0;orthogonalLoop=1;jettySize=auto;html=1;exitX=0.5;exitY=0.5;exitDx=0;exitDy=0;exitPerimeter=0;" edge="1" parent="1" source="-r99oHCk0KJAR1hb0Yyz-5">
          <mxGeometry relative="1" as="geometry">
            <mxPoint x="200" y="240" as="targetPoint" />
            <Array as="points">
              <mxPoint x="665" y="70" />
              <mxPoint x="210" y="70" />
              <mxPoint x="210" y="240" />
            </Array>
          </mxGeometry>
        </mxCell>
        <mxCell id="-r99oHCk0KJAR1hb0Yyz-5" value="Manager" style="shape=umlActor;verticalLabelPosition=bottom;verticalAlign=top;html=1;fillColor=none;gradientColor=none;" parent="1" vertex="1">
          <mxGeometry x="650" y="460" width="30" height="60" as="geometry" />
        </mxCell>
        <mxCell id="-r99oHCk0KJAR1hb0Yyz-8" value="Conectarse al servidor" style="ellipse;whiteSpace=wrap;html=1;fillColor=none;gradientColor=none;" parent="1" vertex="1">
          <mxGeometry x="324" y="230" width="90" height="50" as="geometry" />
        </mxCell>
        <mxCell id="-r99oHCk0KJAR1hb0Yyz-10" value="Salir del encuentro" style="ellipse;whiteSpace=wrap;html=1;fillColor=none;gradientColor=none;" parent="1" vertex="1">
          <mxGeometry x="460" y="290" width="70" height="40" as="geometry" />
        </mxCell>
        <mxCell id="-r99oHCk0KJAR1hb0Yyz-31" style="edgeStyle=orthogonalEdgeStyle;rounded=0;orthogonalLoop=1;jettySize=auto;html=1;exitX=0.5;exitY=0.5;exitDx=0;exitDy=0;exitPerimeter=0;" parent="1" source="-r99oHCk0KJAR1hb0Yyz-11" target="-r99oHCk0KJAR1hb0Yyz-30" edge="1">
          <mxGeometry relative="1" as="geometry" />
        </mxCell>
        <mxCell id="-r99oHCk0KJAR1hb0Yyz-32" style="edgeStyle=orthogonalEdgeStyle;rounded=0;orthogonalLoop=1;jettySize=auto;html=1;exitX=0.5;exitY=0.5;exitDx=0;exitDy=0;exitPerimeter=0;entryX=0;entryY=1;entryDx=0;entryDy=0;" parent="1" source="-r99oHCk0KJAR1hb0Yyz-11" target="-r99oHCk0KJAR1hb0Yyz-25" edge="1">
          <mxGeometry relative="1" as="geometry" />
        </mxCell>
        <mxCell id="7F51FcL1bgS4VTPVWYM4-1" style="edgeStyle=orthogonalEdgeStyle;rounded=0;orthogonalLoop=1;jettySize=auto;html=1;exitX=0.5;exitY=0.5;exitDx=0;exitDy=0;exitPerimeter=0;entryX=0.5;entryY=0.717;entryDx=0;entryDy=0;entryPerimeter=0;" edge="1" parent="1" source="-r99oHCk0KJAR1hb0Yyz-11" target="-r99oHCk0KJAR1hb0Yyz-2">
          <mxGeometry relative="1" as="geometry" />
        </mxCell>
        <mxCell id="-r99oHCk0KJAR1hb0Yyz-11" value="Moderador" style="shape=umlActor;verticalLabelPosition=bottom;verticalAlign=top;html=1;fillColor=none;gradientColor=none;" parent="1" vertex="1">
          <mxGeometry x="190" y="550" width="30" height="60" as="geometry" />
        </mxCell>
        <mxCell id="-r99oHCk0KJAR1hb0Yyz-15" value="Entrar en el encuentro" style="ellipse;whiteSpace=wrap;html=1;fillColor=none;gradientColor=none;" parent="1" vertex="1">
          <mxGeometry x="460" y="390" width="90" height="50" as="geometry" />
        </mxCell>
        <mxCell id="-r99oHCk0KJAR1hb0Yyz-20" value="Extend" style="html=1;verticalAlign=bottom;endArrow=open;dashed=1;endSize=8;" parent="1" source="-r99oHCk0KJAR1hb0Yyz-15" target="-r99oHCk0KJAR1hb0Yyz-8" edge="1">
          <mxGeometry relative="1" as="geometry">
            <mxPoint x="484.97" y="485.91999999999996" as="sourcePoint" />
            <mxPoint x="366.47698693518726" y="355.7919021582261" as="targetPoint" />
          </mxGeometry>
        </mxCell>
        <mxCell id="-r99oHCk0KJAR1hb0Yyz-22" value="Designar moderador" style="ellipse;whiteSpace=wrap;html=1;fillColor=none;gradientColor=none;" parent="1" vertex="1">
          <mxGeometry x="460" y="570" width="100" height="50" as="geometry" />
        </mxCell>
        <mxCell id="-r99oHCk0KJAR1hb0Yyz-25" value="Asignar turnos de palabra" style="ellipse;whiteSpace=wrap;html=1;fillColor=none;gradientColor=none;" parent="1" vertex="1">
          <mxGeometry x="308" y="430" width="106" height="60" as="geometry" />
        </mxCell>
        <mxCell id="-r99oHCk0KJAR1hb0Yyz-27" value="Extend" style="html=1;verticalAlign=bottom;endArrow=open;dashed=1;endSize=8;" parent="1" source="-r99oHCk0KJAR1hb0Yyz-15" target="-r99oHCk0KJAR1hb0Yyz-10" edge="1">
          <mxGeometry relative="1" as="geometry">
            <mxPoint x="613.6107309040362" y="473.3517515360524" as="sourcePoint" />
            <mxPoint x="500.0035753108563" y="310.0008959950673" as="targetPoint" />
          </mxGeometry>
        </mxCell>
        <mxCell id="-r99oHCk0KJAR1hb0Yyz-30" value="Dar por concluido el encuentro" style="ellipse;whiteSpace=wrap;html=1;fillColor=none;gradientColor=none;" parent="1" vertex="1">
          <mxGeometry x="329" y="570" width="101" height="50" as="geometry" />
        </mxCell>
        <mxCell id="-r99oHCk0KJAR1hb0Yyz-33" value="Consultar estado del sistema" style="ellipse;whiteSpace=wrap;html=1;fillColor=none;gradientColor=none;" parent="1" vertex="1">
          <mxGeometry x="304" y="340" width="110" height="50" as="geometry" />
        </mxCell>
        <mxCell id="7F51FcL1bgS4VTPVWYM4-3" value="Hablar en el encuentro" style="ellipse;whiteSpace=wrap;html=1;fillColor=none;gradientColor=none;" vertex="1" parent="1">
          <mxGeometry x="540" y="300" width="70" height="40" as="geometry" />
        </mxCell>
        <mxCell id="7F51FcL1bgS4VTPVWYM4-4" value="Extend" style="html=1;verticalAlign=bottom;endArrow=open;dashed=1;endSize=8;" edge="1" parent="1" source="-r99oHCk0KJAR1hb0Yyz-15" target="7F51FcL1bgS4VTPVWYM4-3">
          <mxGeometry relative="1" as="geometry">
            <mxPoint x="521.8595275850196" y="450.0609543516257" as="sourcePoint" />
            <mxPoint x="507.57365877803477" y="339.9458555297697" as="targetPoint" />
          </mxGeometry>
        </mxCell>
        <mxCell id="7F51FcL1bgS4VTPVWYM4-5" value="Planificar encuentro" style="ellipse;whiteSpace=wrap;html=1;fillColor=none;gradientColor=none;" vertex="1" parent="1">
          <mxGeometry x="490" y="480" width="90" height="50" as="geometry" />
        </mxCell>
        <mxCell id="7F51FcL1bgS4VTPVWYM4-6" value="Extend" style="html=1;verticalAlign=bottom;endArrow=open;dashed=1;endSize=8;" edge="1" parent="1" source="7F51FcL1bgS4VTPVWYM4-5" target="-r99oHCk0KJAR1hb0Yyz-22">
          <mxGeometry relative="1" as="geometry">
            <mxPoint x="539.9954953569542" y="517.3878695164028" as="sourcePoint" />
            <mxPoint x="442.3652837433509" y="402.61621616864795" as="targetPoint" />
          </mxGeometry>
        </mxCell>
      </root>
    </mxGraphModel>
  </diagram>
</mxfile>
